<svg width="409" height="134" viewBox="0 0 409 134" fill="none" xmlns="http://www.w3.org/2000/svg">
<path d="M45.12 36.228V61.5H38.964V51.096H29.388V61.5H23.232V36.228H29.388V46.128H38.964V36.228H45.12ZM61.516 61.752C59.14 61.752 56.956 61.2 54.964 60.096C52.996 58.992 51.424 57.456 50.248 55.488C49.096 53.496 48.52 51.264 48.52 48.792C48.52 46.32 49.096 44.1 50.248 42.132C51.424 40.164 52.996 38.628 54.964 37.524C56.956 36.42 59.14 35.868 61.516 35.868C63.892 35.868 66.064 36.42 68.032 37.524C70.024 38.628 71.584 40.164 72.712 42.132C73.864 44.1 74.44 46.32 74.44 48.792C74.44 51.264 73.864 53.496 72.712 55.488C71.56 57.456 70 58.992 68.032 60.096C66.064 61.2 63.892 61.752 61.516 61.752ZM61.516 56.136C63.532 56.136 65.14 55.464 66.34 54.12C67.564 52.776 68.176 51 68.176 48.792C68.176 46.56 67.564 44.784 66.34 43.464C65.14 42.12 63.532 41.448 61.516 41.448C59.476 41.448 57.844 42.108 56.62 43.428C55.42 44.748 54.82 46.536 54.82 48.792C54.82 51.024 55.42 52.812 56.62 54.156C57.844 55.476 59.476 56.136 61.516 56.136ZM61.48 31.836L55.9 34.788V30.54L61.48 27.696L67.06 30.54V34.788L61.48 31.836ZM97.1248 44.364C97.1248 45.828 96.7888 47.172 96.1168 48.396C95.4448 49.596 94.4128 50.568 93.0208 51.312C91.6288 52.056 89.9008 52.428 87.8368 52.428H84.0208V61.5H77.8648V36.228H87.8368C89.8528 36.228 91.5568 36.576 92.9488 37.272C94.3408 37.968 95.3848 38.928 96.0808 40.152C96.7768 41.376 97.1248 42.78 97.1248 44.364ZM87.3688 47.532C88.5448 47.532 89.4208 47.256 89.9968 46.704C90.5728 46.152 90.8608 45.372 90.8608 44.364C90.8608 43.356 90.5728 42.576 89.9968 42.024C89.4208 41.472 88.5448 41.196 87.3688 41.196H84.0208V47.532H87.3688ZM106.486 36.228V61.5H100.33V36.228H106.486ZM129.127 36.228V41.16H122.431V61.5H116.275V41.16H109.579V36.228H129.127ZM147.948 57.036H138.516L137.004 61.5H130.56L139.704 36.228H146.832L155.976 61.5H149.46L147.948 57.036ZM146.364 52.284L143.232 43.032L140.136 52.284H146.364ZM164.915 56.748H172.979V61.5H158.759V36.228H164.915V56.748ZM212.165 36.228V61.5H206.009V46.344L200.357 61.5H195.389L189.701 46.308V61.5H183.545V36.228H190.816L197.909 53.724L204.929 36.228H212.165ZM222.747 36.228V61.5H216.591V36.228H222.747ZM233.365 56.748H241.429V61.5H227.209V36.228H233.365V56.748ZM250.521 36.228V61.5H244.365V36.228H250.521ZM273.162 36.228V41.16H266.466V61.5H260.31V41.16H253.614V36.228H273.162ZM291.984 57.036H282.552L281.04 61.5H274.596L283.74 36.228H290.868L300.012 61.5H293.496L291.984 57.036ZM290.4 52.284L287.268 43.032L284.172 52.284H290.4ZM308.951 36.228V61.5H302.795V36.228H308.951ZM326.3 61.5L321.044 51.96H319.568V61.5H313.412V36.228H323.744C325.736 36.228 327.428 36.576 328.82 37.272C330.236 37.968 331.292 38.928 331.988 40.152C332.684 41.352 333.032 42.696 333.032 44.184C333.032 45.864 332.552 47.364 331.592 48.684C330.656 50.004 329.264 50.94 327.416 51.492L333.248 61.5H326.3ZM319.568 47.604H323.384C324.512 47.604 325.352 47.328 325.904 46.776C326.48 46.224 326.768 45.444 326.768 44.436C326.768 43.476 326.48 42.72 325.904 42.168C325.352 41.616 324.512 41.34 323.384 41.34H319.568V47.604ZM343.052 41.16V46.272H351.296V51.024H343.052V56.568H352.376V61.5H336.896V36.228H352.376V41.16H343.052Z" fill="#0078E7"/>
<path d="M26.688 89.626C25.764 89.626 24.936 89.476 24.204 89.176C23.472 88.876 22.884 88.432 22.44 87.844C22.008 87.256 21.78 86.548 21.756 85.72H25.032C25.08 86.188 25.242 86.548 25.518 86.8C25.794 87.04 26.154 87.16 26.598 87.16C27.054 87.16 27.414 87.058 27.678 86.854C27.942 86.638 28.074 86.344 28.074 85.972C28.074 85.66 27.966 85.402 27.75 85.198C27.546 84.994 27.288 84.826 26.976 84.694C26.676 84.562 26.244 84.412 25.68 84.244C24.864 83.992 24.198 83.74 23.682 83.488C23.166 83.236 22.722 82.864 22.35 82.372C21.978 81.88 21.792 81.238 21.792 80.446C21.792 79.27 22.218 78.352 23.07 77.692C23.922 77.02 25.032 76.684 26.4 76.684C27.792 76.684 28.914 77.02 29.766 77.692C30.618 78.352 31.074 79.276 31.134 80.464H27.804C27.78 80.056 27.63 79.738 27.354 79.51C27.078 79.27 26.724 79.15 26.292 79.15C25.92 79.15 25.62 79.252 25.392 79.456C25.164 79.648 25.05 79.93 25.05 80.302C25.05 80.71 25.242 81.028 25.626 81.256C26.01 81.484 26.61 81.73 27.426 81.994C28.242 82.27 28.902 82.534 29.406 82.786C29.922 83.038 30.366 83.404 30.738 83.884C31.11 84.364 31.296 84.982 31.296 85.738C31.296 86.458 31.11 87.112 30.738 87.7C30.378 88.288 29.85 88.756 29.154 89.104C28.458 89.452 27.636 89.626 26.688 89.626ZM42.6582 84.316C42.6582 84.604 42.6402 84.904 42.6042 85.216H35.6382C35.6862 85.84 35.8842 86.32 36.2322 86.656C36.5922 86.98 37.0302 87.142 37.5462 87.142C38.3142 87.142 38.8482 86.818 39.1482 86.17H42.4242C42.2562 86.83 41.9502 87.424 41.5062 87.952C41.0742 88.48 40.5282 88.894 39.8682 89.194C39.2082 89.494 38.4702 89.644 37.6542 89.644C36.6702 89.644 35.7942 89.434 35.0262 89.014C34.2582 88.594 33.6582 87.994 33.2262 87.214C32.7942 86.434 32.5782 85.522 32.5782 84.478C32.5782 83.434 32.7882 82.522 33.2082 81.742C33.6402 80.962 34.2402 80.362 35.0082 79.942C35.7762 79.522 36.6582 79.312 37.6542 79.312C38.6262 79.312 39.4902 79.516 40.2462 79.924C41.0022 80.332 41.5902 80.914 42.0102 81.67C42.4422 82.426 42.6582 83.308 42.6582 84.316ZM39.5082 83.506C39.5082 82.978 39.3282 82.558 38.9682 82.246C38.6082 81.934 38.1582 81.778 37.6182 81.778C37.1022 81.778 36.6642 81.928 36.3042 82.228C35.9562 82.528 35.7402 82.954 35.6562 83.506H39.5082ZM47.36 81.13C47.72 80.578 48.17 80.146 48.71 79.834C49.25 79.51 49.85 79.348 50.51 79.348V82.606H49.664C48.896 82.606 48.32 82.774 47.936 83.11C47.552 83.434 47.36 84.01 47.36 84.838V89.5H44.282V79.456H47.36V81.13ZM56.4992 86.62L58.6772 79.456H61.9532L58.3892 89.5H54.5912L51.0272 79.456H54.3212L56.4992 86.62ZM64.7968 78.412C64.2568 78.412 63.8128 78.256 63.4648 77.944C63.1288 77.62 62.9608 77.224 62.9608 76.756C62.9608 76.276 63.1288 75.88 63.4648 75.568C63.8128 75.244 64.2568 75.082 64.7968 75.082C65.3248 75.082 65.7568 75.244 66.0928 75.568C66.4408 75.88 66.6148 76.276 66.6148 76.756C66.6148 77.224 66.4408 77.62 66.0928 77.944C65.7568 78.256 65.3248 78.412 64.7968 78.412ZM66.3268 79.456V89.5H63.2488V79.456H66.3268ZM67.9454 84.478C67.9454 83.434 68.1554 82.522 68.5754 81.742C69.0074 80.962 69.6014 80.362 70.3574 79.942C71.1254 79.522 72.0014 79.312 72.9854 79.312C74.2454 79.312 75.2954 79.642 76.1354 80.302C76.9874 80.962 77.5454 81.892 77.8094 83.092H74.5334C74.2574 82.324 73.7234 81.94 72.9314 81.94C72.3674 81.94 71.9174 82.162 71.5814 82.606C71.2454 83.038 71.0774 83.662 71.0774 84.478C71.0774 85.294 71.2454 85.924 71.5814 86.368C71.9174 86.8 72.3674 87.016 72.9314 87.016C73.7234 87.016 74.2574 86.632 74.5334 85.864H77.8094C77.5454 87.04 76.9874 87.964 76.1354 88.636C75.2834 89.308 74.2334 89.644 72.9854 89.644C72.0014 89.644 71.1254 89.434 70.3574 89.014C69.6014 88.594 69.0074 87.994 68.5754 87.214C68.1554 86.434 67.9454 85.522 67.9454 84.478ZM88.9238 84.316C88.9238 84.604 88.9058 84.904 88.8698 85.216H81.9038C81.9518 85.84 82.1498 86.32 82.4978 86.656C82.8578 86.98 83.2958 87.142 83.8118 87.142C84.5798 87.142 85.1138 86.818 85.4138 86.17H88.6898C88.5218 86.83 88.2158 87.424 87.7718 87.952C87.3398 88.48 86.7938 88.894 86.1338 89.194C85.4738 89.494 84.7358 89.644 83.9198 89.644C82.9358 89.644 82.0598 89.434 81.2918 89.014C80.5238 88.594 79.9238 87.994 79.4918 87.214C79.0598 86.434 78.8438 85.522 78.8438 84.478C78.8438 83.434 79.0538 82.522 79.4738 81.742C79.9058 80.962 80.5058 80.362 81.2738 79.942C82.0418 79.522 82.9238 79.312 83.9198 79.312C84.8918 79.312 85.7558 79.516 86.5118 79.924C87.2678 80.332 87.8558 80.914 88.2758 81.67C88.7078 82.426 88.9238 83.308 88.9238 84.316ZM85.7738 83.506C85.7738 82.978 85.5938 82.558 85.2338 82.246C84.8738 81.934 84.4238 81.778 83.8838 81.778C83.3678 81.778 82.9298 81.928 82.5698 82.228C82.2218 82.528 82.0058 82.954 81.9218 83.506H85.7738ZM93.7501 84.46C93.7501 83.428 93.9421 82.522 94.3261 81.742C94.7221 80.962 95.2561 80.362 95.9281 79.942C96.6001 79.522 97.3501 79.312 98.1781 79.312C98.8381 79.312 99.4381 79.45 99.9781 79.726C100.53 80.002 100.962 80.374 101.274 80.842V76.18H104.352V89.5H101.274V88.06C100.986 88.54 100.572 88.924 100.032 89.212C99.5041 89.5 98.8861 89.644 98.1781 89.644C97.3501 89.644 96.6001 89.434 95.9281 89.014C95.2561 88.582 94.7221 87.976 94.3261 87.196C93.9421 86.404 93.7501 85.492 93.7501 84.46ZM101.274 84.478C101.274 83.71 101.058 83.104 100.626 82.66C100.206 82.216 99.6901 81.994 99.0781 81.994C98.4661 81.994 97.9441 82.216 97.5121 82.66C97.0921 83.092 96.8821 83.692 96.8821 84.46C96.8821 85.228 97.0921 85.84 97.5121 86.296C97.9441 86.74 98.4661 86.962 99.0781 86.962C99.6901 86.962 100.206 86.74 100.626 86.296C101.058 85.852 101.274 85.246 101.274 84.478ZM107.281 76.864H110.431L108.415 81.688H106.345L107.281 76.864ZM111.627 84.46C111.627 83.428 111.819 82.522 112.203 81.742C112.599 80.962 113.133 80.362 113.805 79.942C114.477 79.522 115.227 79.312 116.055 79.312C116.763 79.312 117.381 79.456 117.909 79.744C118.449 80.032 118.863 80.41 119.151 80.878V79.456H122.229V89.5H119.151V88.078C118.851 88.546 118.431 88.924 117.891 89.212C117.363 89.5 116.745 89.644 116.037 89.644C115.221 89.644 114.477 89.434 113.805 89.014C113.133 88.582 112.599 87.976 112.203 87.196C111.819 86.404 111.627 85.492 111.627 84.46ZM119.151 84.478C119.151 83.71 118.935 83.104 118.503 82.66C118.083 82.216 117.567 81.994 116.955 81.994C116.343 81.994 115.821 82.216 115.389 82.66C114.969 83.092 114.759 83.692 114.759 84.46C114.759 85.228 114.969 85.84 115.389 86.296C115.821 86.74 116.343 86.962 116.955 86.962C117.567 86.962 118.083 86.74 118.503 86.296C118.935 85.852 119.151 85.246 119.151 84.478ZM130.576 79.348C131.752 79.348 132.688 79.732 133.384 80.5C134.092 81.256 134.446 82.3 134.446 83.632V89.5H131.386V84.046C131.386 83.374 131.212 82.852 130.864 82.48C130.516 82.108 130.048 81.922 129.46 81.922C128.872 81.922 128.404 82.108 128.056 82.48C127.708 82.852 127.534 83.374 127.534 84.046V89.5H124.456V79.456H127.534V80.788C127.846 80.344 128.266 79.996 128.794 79.744C129.322 79.48 129.916 79.348 130.576 79.348ZM146.053 84.316C146.053 84.604 146.035 84.904 145.999 85.216H139.033C139.081 85.84 139.279 86.32 139.627 86.656C139.987 86.98 140.425 87.142 140.941 87.142C141.709 87.142 142.243 86.818 142.543 86.17H145.819C145.651 86.83 145.345 87.424 144.901 87.952C144.469 88.48 143.923 88.894 143.263 89.194C142.603 89.494 141.865 89.644 141.049 89.644C140.065 89.644 139.189 89.434 138.421 89.014C137.653 88.594 137.053 87.994 136.621 87.214C136.189 86.434 135.973 85.522 135.973 84.478C135.973 83.434 136.183 82.522 136.603 81.742C137.035 80.962 137.635 80.362 138.403 79.942C139.171 79.522 140.053 79.312 141.049 79.312C142.021 79.312 142.885 79.516 143.641 79.924C144.397 80.332 144.985 80.914 145.405 81.67C145.837 82.426 146.053 83.308 146.053 84.316ZM142.903 83.506C142.903 82.978 142.723 82.558 142.363 82.246C142.003 81.934 141.553 81.778 141.013 81.778C140.497 81.778 140.059 81.928 139.699 82.228C139.351 82.528 139.135 82.954 139.051 83.506H142.903ZM151.763 89.644C150.887 89.644 150.107 89.494 149.423 89.194C148.739 88.894 148.199 88.486 147.803 87.97C147.407 87.442 147.185 86.854 147.137 86.206H150.179C150.215 86.554 150.377 86.836 150.665 87.052C150.953 87.268 151.307 87.376 151.727 87.376C152.111 87.376 152.405 87.304 152.609 87.16C152.825 87.004 152.933 86.806 152.933 86.566C152.933 86.278 152.783 86.068 152.483 85.936C152.183 85.792 151.697 85.636 151.025 85.468C150.305 85.3 149.705 85.126 149.225 84.946C148.745 84.754 148.331 84.46 147.983 84.064C147.635 83.656 147.461 83.11 147.461 82.426C147.461 81.85 147.617 81.328 147.929 80.86C148.253 80.38 148.721 80.002 149.333 79.726C149.957 79.45 150.695 79.312 151.547 79.312C152.807 79.312 153.797 79.624 154.517 80.248C155.249 80.872 155.669 81.7 155.777 82.732H152.933C152.885 82.384 152.729 82.108 152.465 81.904C152.213 81.7 151.877 81.598 151.457 81.598C151.097 81.598 150.821 81.67 150.629 81.814C150.437 81.946 150.341 82.132 150.341 82.372C150.341 82.66 150.491 82.876 150.791 83.02C151.103 83.164 151.583 83.308 152.231 83.452C152.975 83.644 153.581 83.836 154.049 84.028C154.517 84.208 154.925 84.508 155.273 84.928C155.633 85.336 155.819 85.888 155.831 86.584C155.831 87.172 155.663 87.7 155.327 88.168C155.003 88.624 154.529 88.984 153.905 89.248C153.293 89.512 152.579 89.644 151.763 89.644ZM163.312 86.89V89.5H161.746C160.63 89.5 159.76 89.23 159.136 88.69C158.512 88.138 158.2 87.244 158.2 86.008V82.012H156.976V79.456H158.2V77.008H161.278V79.456H163.294V82.012H161.278V86.044C161.278 86.344 161.35 86.56 161.494 86.692C161.638 86.824 161.878 86.89 162.214 86.89H163.312ZM171.2 79.348C172.352 79.348 173.276 79.732 173.972 80.5C174.668 81.256 175.016 82.3 175.016 83.632V89.5H171.956V84.046C171.956 83.374 171.782 82.852 171.434 82.48C171.086 82.108 170.618 81.922 170.03 81.922C169.442 81.922 168.974 82.108 168.626 82.48C168.278 82.852 168.104 83.374 168.104 84.046V89.5H165.026V76.18H168.104V80.806C168.416 80.362 168.842 80.008 169.382 79.744C169.922 79.48 170.528 79.348 171.2 79.348ZM186.623 84.316C186.623 84.604 186.605 84.904 186.569 85.216H179.603C179.651 85.84 179.849 86.32 180.197 86.656C180.557 86.98 180.995 87.142 181.511 87.142C182.279 87.142 182.813 86.818 183.113 86.17H186.389C186.221 86.83 185.915 87.424 185.471 87.952C185.039 88.48 184.493 88.894 183.833 89.194C183.173 89.494 182.435 89.644 181.619 89.644C180.635 89.644 179.759 89.434 178.991 89.014C178.223 88.594 177.623 87.994 177.191 87.214C176.759 86.434 176.543 85.522 176.543 84.478C176.543 83.434 176.753 82.522 177.173 81.742C177.605 80.962 178.205 80.362 178.973 79.942C179.741 79.522 180.623 79.312 181.619 79.312C182.591 79.312 183.455 79.516 184.211 79.924C184.967 80.332 185.555 80.914 185.975 81.67C186.407 82.426 186.623 83.308 186.623 84.316ZM183.473 83.506C183.473 82.978 183.293 82.558 182.933 82.246C182.573 81.934 182.123 81.778 181.583 81.778C181.067 81.778 180.629 81.928 180.269 82.228C179.921 82.528 179.705 82.954 179.621 83.506H183.473ZM192.333 89.644C191.457 89.644 190.677 89.494 189.993 89.194C189.309 88.894 188.769 88.486 188.373 87.97C187.977 87.442 187.755 86.854 187.707 86.206H190.749C190.785 86.554 190.947 86.836 191.235 87.052C191.523 87.268 191.877 87.376 192.297 87.376C192.681 87.376 192.975 87.304 193.179 87.16C193.395 87.004 193.503 86.806 193.503 86.566C193.503 86.278 193.353 86.068 193.053 85.936C192.753 85.792 192.267 85.636 191.595 85.468C190.875 85.3 190.275 85.126 189.795 84.946C189.315 84.754 188.901 84.46 188.553 84.064C188.205 83.656 188.031 83.11 188.031 82.426C188.031 81.85 188.187 81.328 188.499 80.86C188.823 80.38 189.291 80.002 189.903 79.726C190.527 79.45 191.265 79.312 192.117 79.312C193.377 79.312 194.367 79.624 195.087 80.248C195.819 80.872 196.239 81.7 196.347 82.732H193.503C193.455 82.384 193.299 82.108 193.035 81.904C192.783 81.7 192.447 81.598 192.027 81.598C191.667 81.598 191.391 81.67 191.199 81.814C191.007 81.946 190.911 82.132 190.911 82.372C190.911 82.66 191.061 82.876 191.361 83.02C191.673 83.164 192.153 83.308 192.801 83.452C193.545 83.644 194.151 83.836 194.619 84.028C195.087 84.208 195.495 84.508 195.843 84.928C196.203 85.336 196.389 85.888 196.401 86.584C196.401 87.172 196.233 87.7 195.897 88.168C195.573 88.624 195.099 88.984 194.475 89.248C193.863 89.512 193.149 89.644 192.333 89.644ZM199.832 78.412C199.292 78.412 198.848 78.256 198.5 77.944C198.164 77.62 197.996 77.224 197.996 76.756C197.996 76.276 198.164 75.88 198.5 75.568C198.848 75.244 199.292 75.082 199.832 75.082C200.36 75.082 200.792 75.244 201.128 75.568C201.476 75.88 201.65 76.276 201.65 76.756C201.65 77.224 201.476 77.62 201.128 77.944C200.792 78.256 200.36 78.412 199.832 78.412ZM201.362 79.456V89.5H198.284V79.456H201.362ZM213.061 84.316C213.061 84.604 213.043 84.904 213.007 85.216H206.041C206.089 85.84 206.287 86.32 206.635 86.656C206.995 86.98 207.433 87.142 207.949 87.142C208.717 87.142 209.251 86.818 209.551 86.17H212.827C212.659 86.83 212.353 87.424 211.909 87.952C211.477 88.48 210.931 88.894 210.271 89.194C209.611 89.494 208.873 89.644 208.057 89.644C207.073 89.644 206.197 89.434 205.429 89.014C204.661 88.594 204.061 87.994 203.629 87.214C203.197 86.434 202.981 85.522 202.981 84.478C202.981 83.434 203.191 82.522 203.611 81.742C204.043 80.962 204.643 80.362 205.411 79.942C206.179 79.522 207.061 79.312 208.057 79.312C209.029 79.312 209.893 79.516 210.649 79.924C211.405 80.332 211.993 80.914 212.413 81.67C212.845 82.426 213.061 83.308 213.061 84.316ZM209.911 83.506C209.911 82.978 209.731 82.558 209.371 82.246C209.011 81.934 208.561 81.778 208.021 81.778C207.505 81.778 207.067 81.928 206.707 82.228C206.359 82.528 206.143 82.954 206.059 83.506H209.911Z" fill="#0078E7"/>
</svg>
